<svg width="123" height="53" viewBox="0 0 123 53" fill="none" xmlns="http://www.w3.org/2000/svg">
<path d="M1.09527 29.2271H0V22.8183H1.48392C1.88434 24.5085 2.46142 25.741 3.21515 26.5157C3.96889 27.2904 4.94639 27.6778 6.14765 27.6778C7.01916 27.6778 7.69046 27.5017 8.16154 27.1496C8.65618 26.7739 8.9035 26.2692 8.9035 25.6354C8.9035 24.9781 8.60907 24.3442 8.02022 23.7339C7.43136 23.1 6.47741 22.431 5.15838 21.7267C3.36825 20.7642 2.08455 19.8134 1.30726 18.8744C0.52997 17.9119 0.141325 16.832 0.141325 15.6348C0.141325 14.8601 0.282651 14.1441 0.565301 13.4867C0.871507 12.806 1.27193 12.2191 1.76657 11.7261C2.28476 11.2331 2.89717 10.8575 3.6038 10.5992C4.31042 10.3175 5.07594 10.1767 5.90033 10.1767C6.63052 10.1767 7.34892 10.2823 8.05555 10.4936C8.78573 10.7049 9.42169 10.9983 9.96344 11.3739L10.5994 10.5288H11.518V15.846H10.1401C9.59835 14.5079 9.03305 13.5454 8.44419 12.9585C7.87889 12.3717 7.18404 12.0782 6.35964 12.0782C5.70012 12.0782 5.17015 12.2543 4.76973 12.6064C4.39286 12.9585 4.20443 13.4281 4.20443 14.0149C4.20443 14.6723 4.48708 15.2944 5.05238 15.8813C5.64124 16.4681 6.60696 17.1137 7.94955 17.818C8.89172 18.3345 9.70434 18.8392 10.3874 19.3322C11.0705 19.8252 11.624 20.3299 12.048 20.8463C12.472 21.3393 12.7782 21.8675 12.9666 22.431C13.1786 22.9709 13.2846 23.5578 13.2846 24.1916C13.2846 25.0133 13.1315 25.7528 12.8253 26.4101C12.5191 27.0674 12.0833 27.6308 11.518 28.1003C10.9527 28.5698 10.2696 28.9337 9.4688 29.1919C8.69151 29.4502 7.82 29.5793 6.85428 29.5793C5.84145 29.5793 4.89928 29.4502 4.02777 29.1919C3.15627 28.9102 2.43786 28.5111 1.87256 27.9947L1.09527 29.2271Z" fill="white"/>
<path d="M23.6303 23.4521C23.6303 24.3912 23.6657 25.1424 23.7363 25.7058C23.807 26.2692 23.9483 26.7035 24.1603 27.0087C24.3723 27.3139 24.6785 27.5252 25.0789 27.6425C25.4793 27.7364 26.0211 27.7951 26.7041 27.8186V29.2271H15.5748V27.8186C16.2343 27.7951 16.7643 27.7247 17.1647 27.6073C17.5887 27.4665 17.9066 27.2552 18.1186 26.9735C18.3542 26.6683 18.5073 26.2575 18.5779 25.741C18.6722 25.2011 18.7193 24.5203 18.7193 23.6986V19.3674C18.7193 18.0058 18.6957 16.8907 18.6486 16.0221C18.6015 15.13 18.5426 14.5197 18.4719 14.191C18.3542 13.6041 18.0833 13.2168 17.6593 13.029C17.2589 12.8412 16.5169 12.7473 15.4334 12.7473V11.55L23.6303 10.2119V23.4521ZM18.4366 2.74665C18.4366 1.97195 18.6957 1.32637 19.2139 0.809909C19.7556 0.26997 20.4034 0 21.1571 0C21.9344 0 22.5822 0.26997 23.1003 0.809909C23.6421 1.32637 23.913 1.97195 23.913 2.74665C23.913 3.49787 23.6421 4.14345 23.1003 4.68339C22.5822 5.19985 21.9344 5.45808 21.1571 5.45808C20.4034 5.45808 19.7556 5.19985 19.2139 4.68339C18.6957 4.14345 18.4366 3.49787 18.4366 2.74665Z" fill="white"/>
<path d="M36.4319 23.4169C36.4319 24.4029 36.4554 25.1776 36.5025 25.741C36.5496 26.3044 36.6792 26.7387 36.8912 27.0439C37.1032 27.3256 37.4094 27.5134 37.8098 27.6073C38.2102 27.7012 38.7637 27.7717 39.4704 27.8186V29.2271H28.3057V27.8186C29.0123 27.7717 29.5776 27.7012 30.0016 27.6073C30.4255 27.5134 30.7435 27.3256 30.9555 27.0439C31.1675 26.7622 31.3088 26.3631 31.3795 25.8467C31.4501 25.3067 31.4855 24.5907 31.4855 23.6986V19.3322C31.4855 17.9941 31.4619 16.879 31.4148 15.9869C31.3913 15.0948 31.3324 14.4845 31.2382 14.1558C31.1675 13.8506 31.0733 13.6159 30.9555 13.4515C30.8613 13.2637 30.6964 13.1229 30.4609 13.029C30.2489 12.9116 29.9662 12.8412 29.6129 12.8177C29.2596 12.7707 28.8003 12.7473 28.235 12.7473V11.55L35.0539 10.2119L35.4779 13.2755H35.6899C36.6792 12.1721 37.6685 11.3857 38.6577 10.9162C39.6706 10.4466 40.8365 10.2119 42.1555 10.2119C43.7101 10.2119 44.9938 10.4819 46.0067 11.0218C47.0195 11.5617 47.785 12.3364 48.3032 13.3459H48.4445C49.2925 12.3599 50.3053 11.597 51.483 11.057C52.6607 10.4936 53.9209 10.2119 55.2635 10.2119C56.6767 10.2119 57.9015 10.388 58.9379 10.7401C59.9979 11.0922 60.8223 11.597 61.4111 12.2543C61.8822 12.7942 62.2237 13.4985 62.4357 14.3671C62.6713 15.2357 62.789 16.4447 62.789 17.9941V23.4169C62.789 24.3794 62.8126 25.1424 62.8597 25.7058C62.9304 26.2692 63.0717 26.7035 63.2837 27.0087C63.4957 27.3139 63.8019 27.5134 64.2023 27.6073C64.6027 27.7012 65.1562 27.7717 65.8629 27.8186V29.2271H54.6982V27.8186C55.4048 27.7951 55.9583 27.7364 56.3587 27.6425C56.7827 27.5252 57.1007 27.3256 57.3127 27.0439C57.5482 26.7387 57.6895 26.3279 57.7367 25.8114C57.8073 25.295 57.8427 24.5907 57.8427 23.6986V19.0857C57.8427 17.8649 57.772 16.832 57.6307 15.9869C57.4893 15.1418 57.2656 14.461 56.9594 13.9445C56.6532 13.4281 56.241 13.0642 55.7228 12.8529C55.2281 12.6181 54.6157 12.5008 53.8855 12.5008C53.0611 12.5008 52.3781 12.7003 51.8363 13.0994C51.3181 13.4985 50.8824 14.0149 50.5291 14.6488C49.9167 15.7521 49.6105 17.1255 49.6105 18.7688V23.4169C49.6105 24.3794 49.634 25.1424 49.6811 25.7058C49.7282 26.2692 49.8578 26.7035 50.0698 27.0087C50.2817 27.3139 50.588 27.5134 50.9884 27.6073C51.4123 27.7012 51.9894 27.7717 52.7196 27.8186V29.2271H41.5196V27.8186C42.2262 27.7717 42.7797 27.7012 43.1801 27.6073C43.6041 27.5134 43.9221 27.3256 44.1341 27.0439C44.3696 26.7622 44.511 26.3631 44.5581 25.8467C44.6287 25.3067 44.6641 24.5907 44.6641 23.6986V19.0857C44.6641 17.8649 44.5934 16.832 44.4521 15.9869C44.3107 15.1418 44.0752 14.461 43.7454 13.9445C43.4392 13.4281 43.027 13.0642 42.5089 12.8529C41.9907 12.6181 41.3429 12.5008 40.5656 12.5008C39.7883 12.5008 39.1406 12.6886 38.6224 13.0642C38.1278 13.4398 37.7156 13.9445 37.3858 14.5784C37.0796 15.1418 36.8441 15.7874 36.6792 16.5151C36.5143 17.2428 36.4319 17.9941 36.4319 18.7688V23.4169Z" fill="white"/>
<path d="M74.1108 12.8529H74.2521C75.8067 11.0922 77.8324 10.2119 80.3291 10.2119C81.6953 10.2119 82.9436 10.4584 84.0742 10.9514C85.2284 11.4209 86.2177 12.0899 87.0421 12.9585C87.89 13.8037 88.5378 14.8249 88.9853 16.0221C89.4564 17.1959 89.6919 18.487 89.6919 19.8956C89.6919 21.3041 89.4564 22.5953 88.9853 23.7691C88.5378 24.9428 87.9018 25.964 87.0774 26.8326C86.253 27.7012 85.2637 28.382 84.1096 28.875C82.979 29.3445 81.7424 29.5793 80.3998 29.5793C78.115 29.5793 76.372 28.8046 75.1707 27.2552H75.0294V32.1499C75.0294 33.0889 75.0765 33.8401 75.1707 34.4035C75.265 34.9669 75.4652 35.4012 75.7714 35.7064C76.0776 36.0116 76.5016 36.2229 77.0433 36.3403C77.6086 36.4576 78.3506 36.5281 79.2692 36.5515V38.0305H67.0799V36.5515C67.7158 36.5281 68.234 36.4576 68.6344 36.3403C69.0349 36.2229 69.3411 36.0116 69.5531 35.7064C69.7886 35.4012 69.9417 34.9787 70.0124 34.4387C70.1066 33.9223 70.1537 33.2415 70.1537 32.3964V19.297C70.1537 18.2171 70.1301 17.1959 70.083 16.2334C70.0359 15.2474 69.977 14.5549 69.9064 14.1558C69.7886 13.6159 69.5177 13.2402 69.0938 13.029C68.6933 12.8177 67.9985 12.712 67.0092 12.712V11.3387L74.1108 10.3527V12.8529ZM80.1171 12.2191C79.3634 12.2191 78.645 12.3834 77.9619 12.712C77.2788 13.0407 76.7371 13.475 76.3367 14.0149C75.9363 14.5549 75.6301 15.2357 75.4181 16.0573C75.2061 16.8555 75.1001 17.7241 75.1001 18.6631V21.0576C75.1001 22.7244 75.5123 24.1447 76.3367 25.3185C77.2317 26.6096 78.4919 27.2552 80.1171 27.2552C81.5539 27.2552 82.6139 26.6683 83.297 25.4945C84.0036 24.2973 84.3569 22.4544 84.3569 19.966C84.3569 14.8014 82.9436 12.2191 80.1171 12.2191Z" fill="white"/>
<path d="M99.7707 23.4521C99.7707 24.3912 99.8061 25.1424 99.8767 25.7058C99.9474 26.2692 100.089 26.7035 100.301 27.0087C100.513 27.3139 100.819 27.5252 101.219 27.6425C101.62 27.7364 102.161 27.7951 102.845 27.8186V29.2271H91.7152V27.8186C92.3747 27.7951 92.9047 27.7247 93.3051 27.6073C93.7291 27.4665 94.0471 27.2552 94.259 26.9735C94.4946 26.6683 94.6477 26.2575 94.7184 25.741C94.8126 25.2011 94.8597 24.5203 94.8597 23.6986V9.15549C94.8597 7.79391 94.8361 6.67881 94.789 5.81022C94.7419 4.91814 94.683 4.30778 94.6124 3.97912C94.4946 3.39223 94.2237 3.00488 93.7997 2.81707C93.3993 2.62927 92.6574 2.53537 91.5739 2.53537V1.33811L99.7707 0V23.4521Z" fill="white"/>
<path d="M122.682 25.9523C120.539 28.3703 117.865 29.5793 114.662 29.5793C113.201 29.5793 111.871 29.3563 110.669 28.9102C109.492 28.4407 108.479 27.7951 107.631 26.9735C106.783 26.1284 106.123 25.1306 105.652 23.9803C105.181 22.83 104.946 21.5506 104.946 20.1421C104.946 18.6866 105.193 17.3602 105.688 16.163C106.182 14.9422 106.877 13.8976 107.772 13.029C108.691 12.1369 109.763 11.4444 110.987 10.9514C112.236 10.4584 113.602 10.2119 115.086 10.2119C117.583 10.2119 119.526 10.8809 120.915 12.2191C122.305 13.5572 123 15.4352 123 17.8532C123 18.2288 122.941 18.4636 122.823 18.5575C122.706 18.6279 122.376 18.6631 121.834 18.6631H110.457C110.363 18.8744 110.316 19.2617 110.316 19.8252C110.316 22.1258 110.811 23.9451 111.8 25.2832C112.813 26.6213 114.179 27.2904 115.898 27.2904C116.888 27.2904 117.865 27.0674 118.831 26.6214C119.82 26.1753 120.774 25.5415 121.693 24.7198L122.682 25.9523ZM115.828 16.6912C116.77 16.6912 117.371 16.6442 117.63 16.5503C117.912 16.4329 118.054 16.1747 118.054 15.7756C118.054 14.7427 117.759 13.8976 117.17 13.2402C116.581 12.5829 115.84 12.2543 114.944 12.2543C113.932 12.2543 113.025 12.6768 112.224 13.522C111.447 14.3436 110.94 15.4 110.705 16.6912H115.828Z" fill="white"/>
<path d="M26.1659 52.9051H25.3568V46.6868H23.1534V45.9706H28.3693V46.6868H26.1659V52.9051Z" fill="white"/>
<path d="M40.3336 49.4284C40.3336 50.5383 40.0512 51.411 39.4865 52.0466C38.9249 52.6822 38.1429 53 37.1403 53C36.1155 53 35.3239 52.6885 34.7655 52.0656C34.2103 51.4395 33.9327 50.5573 33.9327 49.4189C33.9327 48.29 34.2119 47.4157 34.7703 46.7959C35.3287 46.173 36.1218 45.8615 37.1498 45.8615C38.1492 45.8615 38.9297 46.1777 39.4913 46.8101C40.0528 47.4426 40.3336 48.3153 40.3336 49.4284ZM34.7893 49.4284C34.7893 50.3675 34.9892 51.0806 35.3889 51.5676C35.7919 52.0514 36.3757 52.2933 37.1403 52.2933C37.9113 52.2933 38.4934 52.0514 38.8869 51.5676C39.2803 51.0838 39.477 50.3707 39.477 49.4284C39.477 48.4956 39.2803 47.7888 38.8869 47.3082C38.4966 46.8244 37.9176 46.5825 37.1498 46.5825C36.3788 46.5825 35.7919 46.826 35.3889 47.3129C34.9892 47.7967 34.7893 48.5019 34.7893 49.4284Z" fill="white"/>
<path d="M47.5722 50.0213V52.9051H46.7631V45.9706H48.6715C49.525 45.9706 50.1548 46.1334 50.5609 46.4591C50.9701 46.7848 51.1748 47.275 51.1748 47.9295C51.1748 48.8465 50.7084 49.4663 49.7756 49.7889L51.665 52.9051H50.7084L49.0237 50.0213H47.5722ZM47.5722 49.3288H48.681C49.2521 49.3288 49.6709 49.2165 49.9374 48.992C50.2039 48.7643 50.3372 48.4244 50.3372 47.9722C50.3372 47.5137 50.2008 47.1833 49.9279 46.9809C49.6582 46.7785 49.2236 46.6773 48.6239 46.6773H47.5722V49.3288Z" fill="white"/>
<path d="M63.7007 49.4284C63.7007 50.5383 63.4183 51.411 62.8535 52.0466C62.292 52.6822 61.5099 53 60.5073 53C59.4825 53 58.6909 52.6885 58.1325 52.0656C57.5773 51.4395 57.2997 50.5573 57.2997 49.4189C57.2997 48.29 57.5789 47.4157 58.1373 46.7959C58.6957 46.173 59.4889 45.8615 60.5168 45.8615C61.5162 45.8615 62.2967 46.1777 62.8583 46.8101C63.4199 47.4426 63.7007 48.3153 63.7007 49.4284ZM58.1563 49.4284C58.1563 50.3675 58.3562 51.0806 58.756 51.5676C59.1589 52.0514 59.7427 52.2933 60.5073 52.2933C61.2783 52.2933 61.8605 52.0514 62.2539 51.5676C62.6473 51.0838 62.844 50.3707 62.844 49.4284C62.844 48.4956 62.6473 47.7888 62.2539 47.3082C61.8637 46.8244 61.2846 46.5825 60.5168 46.5825C59.7459 46.5825 59.1589 46.826 58.756 47.3129C58.3562 47.7967 58.1563 48.5019 58.1563 49.4284Z" fill="white"/>
<path d="M75.565 52.9051H74.6418L70.8393 47.0852H70.8012C70.852 47.7683 70.8773 48.3944 70.8773 48.9635V52.9051H70.1302V45.9706H71.0439L74.8369 51.7668H74.875C74.8686 51.6814 74.8543 51.4079 74.8321 50.9462C74.8099 50.4814 74.802 50.1493 74.8083 49.9501V45.9706H75.565V52.9051Z" fill="white"/>
<path d="M84.493 52.9051H83.684V46.6868H81.4805V45.9706H86.6965V46.6868H84.493V52.9051Z" fill="white"/>
<path d="M98.6608 49.4284C98.6608 50.5383 98.3784 51.411 97.8137 52.0466C97.2521 52.6822 96.47 53 95.4675 53C94.4427 53 93.6511 52.6885 93.0927 52.0656C92.5375 51.4395 92.2598 50.5573 92.2598 49.4189C92.2598 48.29 92.539 47.4157 93.0974 46.7959C93.6558 46.173 94.449 45.8615 95.477 45.8615C96.4764 45.8615 97.2569 46.1777 97.8184 46.8101C98.38 47.4426 98.6608 48.3153 98.6608 49.4284ZM93.1165 49.4284C93.1165 50.3675 93.3164 51.0806 93.7161 51.5676C94.119 52.0514 94.7028 52.2933 95.4675 52.2933C96.2384 52.2933 96.8206 52.0514 97.214 51.5676C97.6075 51.0838 97.8042 50.3707 97.8042 49.4284C97.8042 48.4956 97.6075 47.7888 97.214 47.3082C96.8238 46.8244 96.2448 46.5825 95.477 46.5825C94.706 46.5825 94.119 46.826 93.7161 47.3129C93.3164 47.7967 93.1165 48.5019 93.1165 49.4284Z" fill="white"/>
</svg>
